<?xml version="1.0" standalone="no"?>
<!DOCTYPE svg PUBLIC "-//W3C//DTD SVG 20010904//EN"
 "http://www.w3.org/TR/2001/REC-SVG-20010904/DTD/svg10.dtd">
<svg version="1.0" xmlns="http://www.w3.org/2000/svg"
 width="1000.000000pt" height="1000.000000pt" viewBox="0 0 1000.000000 1000.000000"
 preserveAspectRatio="xMidYMid meet">

<g transform="translate(0.000000,1000.000000) scale(0.100000,-0.100000)"
fill="#000000" stroke="none">
<path d="M0 8220 c0 -1180 3 -1780 10 -1780 6 0 10 -9 10 -20 0 -11 -4 -20
-10 -20 -7 0 -10 -987 -10 -2940 0 -2902 0 -2941 19 -2930 15 7 23 6 35 -6 20
-19 20 -28 0 -45 -12 -10 -20 -10 -35 -1 -19 12 -19 6 -19 -233 l0 -245 5000
0 5000 0 0 5000 0 5000 -5000 0 -5000 0 0 -1780z m8981 1437 c-1 -12 -15 -9
-19 4 -3 6 1 10 8 8 6 -3 11 -8 11 -12z m-5981 -55 c0 -13 -12 -22 -22 -16
-10 6 -1 24 13 24 5 0 9 -4 9 -8z m3800 -96 c0 -3 -4 -8 -10 -11 -5 -3 -10 -1
-10 4 0 6 5 11 10 11 6 0 10 -2 10 -4z m750 -206 c0 -5 -4 -10 -10 -10 -5 0
-10 5 -10 10 0 6 5 10 10 10 6 0 10 -4 10 -10z m1020 -84 c0 -11 -19 -15 -25
-6 -3 5 1 10 9 10 9 0 16 -2 16 -4z m-690 -96 c0 -5 -7 -10 -16 -10 -8 0 -12
5 -9 10 3 6 10 10 16 10 5 0 9 -4 9 -10z m-740 -30 c0 -5 -5 -10 -11 -10 -5 0
-7 5 -4 10 3 6 8 10 11 10 2 0 4 -4 4 -10z m-3550 -20 c0 -5 -4 -10 -10 -10
-5 0 -10 5 -10 10 0 6 5 10 10 10 6 0 10 -4 10 -10z m6161 -126 c9 -11 10 -20
2 -32 -24 -39 -82 -15 -68 28 8 24 47 27 66 4z m-1481 -34 c0 -5 -7 -10 -15
-10 -8 0 -15 5 -15 10 0 6 7 10 15 10 8 0 15 -4 15 -10z m155 -180 c0 -7 -6
-15 -12 -17 -8 -3 -13 4 -13 17 0 13 5 20 13 18 6 -3 12 -11 12 -18z m-1265
-25 c0 -8 -4 -15 -9 -15 -13 0 -22 16 -14 24 11 11 23 6 23 -9z m1688 -37 c-6
-18 -28 -21 -28 -4 0 9 7 16 16 16 9 0 14 -5 12 -12z m912 -149 c0 -23 -28
-26 -37 -3 -6 16 15 37 29 28 4 -3 8 -14 8 -25z m-5870 -79 c0 -5 -4 -10 -10
-10 -5 0 -10 5 -10 10 0 6 5 10 10 10 6 0 10 -4 10 -10z m-3565 -120 c-3 -5
-10 -10 -16 -10 -5 0 -9 5 -9 10 0 6 7 10 16 10 8 0 12 -4 9 -10z m3710 -9
c-8 -13 -35 -15 -35 -2 0 5 8 11 18 13 21 5 26 2 17 -11z m4837 4 c0 -5 -5
-11 -11 -13 -6 -2 -11 4 -11 13 0 9 5 15 11 13 6 -2 11 -8 11 -13z m-7588
-116 c-3 -5 -10 -7 -15 -3 -5 3 -7 10 -3 15 3 5 10 7 15 3 5 -3 7 -10 3 -15z
m8420 -5 c8 -21 -1 -34 -25 -34 -12 0 -19 7 -19 18 0 34 33 45 44 16z m-8551
-38 c8 -20 -20 -43 -35 -28 -14 14 -3 42 16 42 7 0 16 -6 19 -14z m1598 1 c-1
-12 -15 -9 -19 4 -3 6 1 10 8 8 6 -3 11 -8 11 -12z m6531 -82 c0 -5 -5 -11
-11 -13 -6 -2 -11 4 -11 13 0 9 5 15 11 13 6 -2 11 -8 11 -13z m-725 -21 c-9
-9 -28 6 -21 18 4 6 10 6 17 -1 6 -6 8 -13 4 -17z m-913 -21 c-23 -17 -54 -17
-54 0 0 20 42 37 58 24 11 -9 11 -13 -4 -24z m-5490 -49 c8 -21 -1 -34 -24
-34 -22 0 -34 15 -26 35 7 20 42 19 50 -1z m7200 -15 c-3 -5 -10 -7 -15 -3 -5
3 -7 10 -3 15 3 5 10 7 15 3 5 -3 7 -10 3 -15z m-4830 -30 c-3 -5 -10 -7 -15
-3 -5 3 -7 10 -3 15 3 5 10 7 15 3 5 -3 7 -10 3 -15z m-2784 -65 c0 -2 -7 -4
-15 -4 -8 0 -15 4 -15 10 0 5 7 7 15 4 8 -4 15 -8 15 -10z m7830 -14 c0 -5 -4
-10 -10 -10 -5 0 -10 5 -10 10 0 6 5 10 10 10 6 0 10 -4 10 -10z m-7850 -25
c0 -8 -6 -15 -14 -15 -17 0 -28 14 -19 24 12 12 33 6 33 -9z m7410 -39 c0 -3
-4 -8 -10 -11 -5 -3 -10 -1 -10 4 0 6 5 11 10 11 6 0 10 -2 10 -4z m672 -11
c0 -5 -5 -11 -11 -13 -6 -2 -11 4 -11 13 0 9 5 15 11 13 6 -2 11 -8 11 -13z
m-8792 -83 c0 -13 -12 -22 -22 -16 -10 6 -1 24 13 24 5 0 9 -4 9 -8z m8314
-23 c-3 -5 -10 -7 -15 -3 -5 3 -7 10 -3 15 3 5 10 7 15 3 5 -3 7 -10 3 -15z
m-1009 -69 c3 -5 1 -10 -4 -10 -6 0 -11 5 -11 10 0 6 2 10 4 10 3 0 8 -4 11
-10z m-3235 -20 c0 -5 -4 -10 -10 -10 -5 0 -10 5 -10 10 0 6 5 10 10 10 6 0
10 -4 10 -10z m4130 -10 c0 -5 -5 -10 -11 -10 -5 0 -7 5 -4 10 3 6 8 10 11 10
2 0 4 -4 4 -10z m-8655 -100 c19 -21 14 -50 -8 -50 -21 0 -50 37 -44 55 9 21
30 19 52 -5z m3385 -40 c0 -5 -2 -10 -4 -10 -3 0 -8 5 -11 10 -3 6 -1 10 4 10
6 0 11 -4 11 -10z m-2385 -10 c3 -5 -1 -10 -10 -10 -9 0 -13 5 -10 10 3 6 8
10 10 10 2 0 7 -4 10 -10z m395 0 c0 -5 -4 -10 -10 -10 -5 0 -10 5 -10 10 0 6
5 10 10 10 6 0 10 -4 10 -10z m2185 -20 c3 -5 1 -10 -4 -10 -6 0 -11 5 -11 10
0 6 2 10 4 10 3 0 8 -4 11 -10z m3602 -36 c8 -21 -13 -42 -28 -27 -13 13 -5
43 11 43 6 0 13 -7 17 -16z m-5927 2 c0 -2 -7 -7 -16 -10 -8 -3 -12 -2 -9 4 6
10 25 14 25 6z m6306 -33 c-10 -10 -19 5 -10 18 6 11 8 11 12 0 2 -7 1 -15 -2
-18z m994 17 c0 -5 -4 -10 -10 -10 -5 0 -10 5 -10 10 0 6 5 10 10 10 6 0 10
-4 10 -10z m331 -23 c-13 -13 -26 -3 -16 12 3 6 11 8 17 5 6 -4 6 -10 -1 -17z
m-3921 -27 c0 -5 -4 -10 -10 -10 -5 0 -10 5 -10 10 0 6 5 10 10 10 6 0 10 -4
10 -10z m-2845 -148 c0 -18 -20 -15 -23 4 -3 10 1 15 10 12 7 -3 13 -10 13
-16z m3877 -14 c-6 -6 -15 -9 -18 -5 -4 3 -4 14 0 23 5 13 9 15 18 6 9 -9 9
-15 0 -24z m2904 -39 c10 -17 -13 -36 -27 -22 -12 12 -4 33 11 33 5 0 12 -5
16 -11z m-4096 -28 c0 -17 -18 -21 -24 -6 -3 9 0 15 9 15 8 0 15 -4 15 -9z
m-2893 -37 c-9 -9 -28 6 -21 18 4 6 10 6 17 -1 6 -6 8 -13 4 -17z m5629 15
c10 -17 -13 -36 -27 -22 -12 12 -4 33 11 33 5 0 12 -5 16 -11z m-5931 -9 c3
-5 1 -10 -4 -10 -6 0 -11 5 -11 10 0 6 2 10 4 10 3 0 8 -4 11 -10z m4543 -1
c-2 -6 -8 -10 -13 -10 -5 0 -11 4 -13 10 -2 6 4 11 13 11 9 0 15 -5 13 -11z
m-2218 -39 c0 -5 -4 -10 -10 -10 -5 0 -10 5 -10 10 0 6 5 10 10 10 6 0 10 -4
10 -10z m4830 -10 c0 -5 -4 -10 -10 -10 -5 0 -10 5 -10 10 0 6 5 10 10 10 6 0
10 -4 10 -10z m-1520 -4 c0 -3 -4 -8 -10 -11 -5 -3 -10 -1 -10 4 0 6 5 11 10
11 6 0 10 -2 10 -4z m-7110 -44 c0 -5 -7 -9 -15 -9 -8 0 -15 4 -15 9 0 4 7 8
15 8 8 0 15 -4 15 -8z m6710 -32 c0 -5 -4 -10 -10 -10 -5 0 -10 5 -10 10 0 6
5 10 10 10 6 0 10 -4 10 -10z m1200 -6 c0 -8 -4 -12 -10 -9 -5 3 -10 10 -10
16 0 5 5 9 10 9 6 0 10 -7 10 -16z m-7280 -68 c0 -3 -4 -8 -10 -11 -5 -3 -10
-1 -10 4 0 6 5 11 10 11 6 0 10 -2 10 -4z m1318 -13 c-4 -22 -22 -20 -26 1 -2
10 3 16 13 16 10 0 15 -7 13 -17z m6982 7 c0 -5 -4 -10 -10 -10 -5 0 -10 5
-10 10 0 6 5 10 10 10 6 0 10 -4 10 -10z m-3012 -28 c3 -18 -1 -22 -22 -22
-19 0 -26 5 -26 18 0 39 43 43 48 4z m3372 -2 c0 -5 -4 -10 -10 -10 -5 0 -10
5 -10 10 0 6 5 10 10 10 6 0 10 -4 10 -10z m-7595 -20 c3 -5 1 -10 -4 -10 -6
0 -11 5 -11 10 0 6 2 10 4 10 3 0 8 -4 11 -10z m3705 -40 c0 -5 -7 -10 -15
-10 -8 0 -15 5 -15 10 0 6 7 10 15 10 8 0 15 -4 15 -10z m-3790 -10 c0 -5 -4
-10 -10 -10 -5 0 -10 5 -10 10 0 6 5 10 10 10 6 0 10 -4 10 -10z m1200 0 c0
-5 -4 -10 -10 -10 -5 0 -10 5 -10 10 0 6 5 10 10 10 6 0 10 -4 10 -10z m-2500
-19 c0 -14 -18 -23 -30 -16 -6 4 -8 11 -5 16 8 12 35 12 35 0z m4760 -21 c0
-5 -2 -10 -4 -10 -3 0 -8 5 -11 10 -3 6 -1 10 4 10 6 0 11 -4 11 -10z m1024
-31 c-3 -5 -10 -7 -15 -3 -5 3 -7 10 -3 15 3 5 10 7 15 3 5 -3 7 -10 3 -15z
m-1836 -72 c4 -20 -25 -34 -40 -19 -15 15 -1 44 19 40 10 -2 19 -11 21 -21z
m-2877 -10 c-13 -13 -26 -3 -16 12 3 6 11 8 17 5 6 -4 6 -10 -1 -17z m7169 13
c0 -5 -7 -10 -16 -10 -8 0 -12 5 -9 10 3 6 10 10 16 10 5 0 9 -4 9 -10z
m-5120 -30 c0 -5 -4 -10 -10 -10 -5 0 -10 5 -10 10 0 6 5 10 10 10 6 0 10 -4
10 -10z m3370 -21 c0 -5 -7 -9 -15 -9 -15 0 -20 12 -9 23 8 8 24 -1 24 -14z
m-3090 1 c0 -5 -4 -10 -10 -10 -5 0 -10 5 -10 10 0 6 5 10 10 10 6 0 10 -4 10
-10z m-2656 -31 c-3 -5 -10 -7 -15 -3 -5 3 -7 10 -3 15 3 5 10 7 15 3 5 -3 7
-10 3 -15z m7214 3 c2 -7 -6 -12 -17 -12 -21 0 -27 11 -14 24 9 9 26 2 31 -12z
m-2368 -16 c0 -11 -19 -15 -25 -6 -3 5 1 10 9 10 9 0 16 -2 16 -4z m-765 -56
c3 -5 1 -10 -4 -10 -6 0 -11 5 -11 10 0 6 2 10 4 10 3 0 8 -4 11 -10z m1895
-5 c0 -8 -7 -15 -15 -15 -8 0 -15 7 -15 15 0 8 7 15 15 15 8 0 15 -7 15 -15z
m-3550 -5 c0 -5 -2 -10 -4 -10 -3 0 -8 5 -11 10 -3 6 -1 10 4 10 6 0 11 -4 11
-10z m5580 0 c0 -5 -7 -10 -15 -10 -8 0 -15 5 -15 10 0 6 7 10 15 10 8 0 15
-4 15 -10z m-1965 -10 c3 -5 -1 -10 -10 -10 -9 0 -13 5 -10 10 3 6 8 10 10 10
2 0 7 -4 10 -10z m-985 -10 c0 -5 -4 -10 -10 -10 -5 0 -10 5 -10 10 0 6 5 10
10 10 6 0 10 -4 10 -10z m-3470 -35 c0 -8 -4 -15 -9 -15 -13 0 -22 16 -14 24
11 11 23 6 23 -9z m470 5 c0 -5 -4 -10 -10 -10 -5 0 -10 5 -10 10 0 6 5 10 10
10 6 0 10 -4 10 -10z m3260 -4 c0 -20 -19 -31 -32 -18 -6 6 -7 15 -4 21 10 16
36 13 36 -3z m-2340 -6 c0 -5 -5 -10 -11 -10 -5 0 -7 5 -4 10 3 6 8 10 11 10
2 0 4 -4 4 -10z m-2100 -34 c0 -3 -4 -8 -10 -11 -5 -3 -10 -1 -10 4 0 6 5 11
10 11 6 0 10 -2 10 -4z m6110 -6 c0 -5 -4 -10 -10 -10 -5 0 -10 5 -10 10 0 6
5 10 10 10 6 0 10 -4 10 -10z m-6560 -41 c0 -5 -7 -9 -15 -9 -15 0 -20 12 -9
23 8 8 24 -1 24 -14z m5340 11 c0 -5 -2 -10 -4 -10 -3 0 -8 5 -11 10 -3 6 -1
10 4 10 6 0 11 -4 11 -10z m2448 -43 c4 -20 -25 -34 -40 -19 -15 15 -1 44 19
40 10 -2 19 -11 21 -21z m-5347 -12 c-1 -15 -24 -12 -29 3 -3 9 2 13 12 10 10
-1 17 -7 17 -13z m-1853 -12 c5 -17 -26 -29 -40 -15 -6 6 -7 15 -3 22 9 14 37
9 43 -7z m-2634 -14 c-3 -5 -10 -7 -15 -3 -5 3 -7 10 -3 15 3 5 10 7 15 3 5
-3 7 -10 3 -15z m5861 -24 c0 -23 -34 -33 -45 -14 -13 20 1 40 24 37 13 -2 21
-10 21 -23z m-5487 4 c-2 -6 -8 -10 -13 -10 -5 0 -11 4 -13 10 -2 6 4 11 13
11 9 0 15 -5 13 -11z m6632 1 c0 -5 -4 -10 -10 -10 -5 0 -10 5 -10 10 0 6 5
10 10 10 6 0 10 -4 10 -10z m-2387 -36 c9 -9 -4 -34 -18 -34 -14 0 -27 25 -18
34 4 3 12 6 18 6 6 0 14 -3 18 -6z m2127 -34 c0 -5 -4 -10 -10 -10 -5 0 -10 5
-10 10 0 6 5 10 10 10 6 0 10 -4 10 -10z m-1405 -45 c0 -25 -4 -30 -24 -30
-32 0 -49 28 -31 50 7 9 23 15 34 13 16 -2 21 -10 21 -33z m-3005 0 c0 -8 -7
-15 -15 -15 -8 0 -15 7 -15 15 0 8 7 15 15 15 8 0 15 -7 15 -15z m-1630 -5 c0
-5 -7 -10 -15 -10 -8 0 -15 5 -15 10 0 6 7 10 15 10 8 0 15 -4 15 -10z m7405
-9 c7 -12 -12 -24 -25 -16 -11 7 -4 25 10 25 5 0 11 -4 15 -9z m-6777 -24 c2
-10 -3 -17 -12 -17 -18 0 -29 16 -21 31 9 14 29 6 33 -14z m712 13 c0 -5 -4
-10 -10 -10 -5 0 -10 5 -10 10 0 6 5 10 10 10 6 0 10 -4 10 -10z m7670 -10 c0
-5 -4 -10 -10 -10 -5 0 -10 5 -10 10 0 6 5 10 10 10 6 0 10 -4 10 -10z m-5970
-30 c0 -5 -4 -10 -10 -10 -5 0 -10 5 -10 10 0 6 5 10 10 10 6 0 10 -4 10 -10z
m-206 -21 c-3 -5 -10 -7 -15 -3 -5 3 -7 10 -3 15 3 5 10 7 15 3 5 -3 7 -10 3
-15z m1726 11 c0 -5 -4 -10 -10 -10 -5 0 -10 5 -10 10 0 6 5 10 10 10 6 0 10
-4 10 -10z m988 -27 c-5 -26 -38 -29 -38 -4 0 15 6 21 21 21 14 0 19 -5 17
-17z m3322 -8 c0 -8 -4 -15 -9 -15 -13 0 -22 16 -14 24 11 11 23 6 23 -9z
m-7135 -60 c0 -27 -3 -30 -30 -30 -21 0 -31 5 -33 18 -6 33 6 49 35 45 24 -3
28 -8 28 -33z m2031 8 c-10 -10 -19 5 -10 18 6 11 8 11 12 0 2 -7 1 -15 -2
-18z m-4296 -23 c0 -5 -2 -10 -4 -10 -3 0 -8 5 -11 10 -3 6 -1 10 4 10 6 0 11
-4 11 -10z m462 -5 c0 -5 -5 -11 -11 -13 -6 -2 -11 4 -11 13 0 9 5 15 11 13 6
-2 11 -8 11 -13z m5808 5 c0 -5 -4 -10 -10 -10 -5 0 -10 5 -10 10 0 6 5 10 10
10 6 0 10 -4 10 -10z m-5725 -40 c0 -8 -8 -16 -17 -18 -13 -2 -18 3 -18 18 0
15 5 20 18 18 9 -2 17 -10 17 -18z m3295 0 c0 -5 -4 -10 -10 -10 -5 0 -10 5
-10 10 0 6 5 10 10 10 6 0 10 -4 10 -10z m3830 0 c0 -5 -4 -10 -10 -10 -5 0
-10 5 -10 10 0 6 5 10 10 10 6 0 10 -4 10 -10z m-6500 -4 c0 -11 -19 -15 -25
-6 -3 5 1 10 9 10 9 0 16 -2 16 -4z m5265 -26 c3 -5 1 -10 -4 -10 -6 0 -11 5
-11 10 0 6 2 10 4 10 3 0 8 -4 11 -10z m-4470 -26 c63 -41 50 -150 -21 -180
-49 -20 -87 -10 -122 32 l-29 35 -249 9 c-251 10 -581 1 -764 -21 -395 -46
-661 -151 -770 -301 -23 -31 -27 -44 -18 -50 12 -7 6 -11 -8 -5 -3 1 -13 -11
-22 -28 -11 -20 -17 -64 -20 -130 -4 -92 -1 -109 27 -195 18 -52 53 -131 78
-175 66 -115 203 -298 203 -271 0 3 -23 36 -51 73 -169 226 -226 423 -167 580
26 70 114 163 199 210 133 75 346 130 613 160 183 20 719 23 984 4 l173 -12
34 37 c32 34 38 36 80 31 53 -5 80 -26 95 -73 9 -27 8 -40 -6 -69 -35 -75
-124 -85 -179 -21 -29 34 -32 35 -133 43 -63 5 -106 5 -112 -1 -6 -6 -14 -5
-22 1 -7 6 -61 14 -120 18 -95 6 -108 5 -108 -9 0 -9 -8 -16 -20 -16 -11 0
-20 6 -20 14 0 7 -14 16 -31 20 -80 16 -629 1 -718 -20 -20 -4 -21 -7 -9 -17
24 -19 28 -43 12 -66 -18 -25 -41 -27 -66 -4 -24 22 -23 48 5 68 21 16 21 16
-18 10 -267 -41 -438 -108 -541 -212 -160 -159 -115 -420 125 -721 63 -79 60
-56 -3 32 -201 280 -190 504 31 633 26 15 48 34 48 41 0 6 5 11 10 10 6 -2 9
-6 8 -9 -1 -4 35 6 80 22 200 68 411 93 802 92 283 0 563 -16 854 -48 131 -15
134 -15 148 5 22 32 72 53 107 46 84 -17 116 -117 57 -177 -24 -23 -38 -29
-74 -29 -46 0 -97 29 -97 55 0 8 -5 17 -10 20 -16 10 -396 52 -619 69 -460 36
-849 22 -1086 -39 -110 -28 -222 -77 -272 -119 l-33 -27 22 -30 22 -29 -22
-22 c-19 -19 -26 -21 -51 -12 -28 11 -29 10 -40 -26 -45 -151 46 -348 291
-625 l80 -90 -102 105 c-56 58 -100 100 -99 93 8 -26 192 -214 205 -209 17 6
25 -6 15 -23 -5 -8 -49 30 -139 125 -73 75 -132 133 -132 128 0 -5 54 -68 121
-139 l121 -130 -134 136 c-142 143 -229 250 -307 377 -103 168 -131 254 -131
401 0 97 3 111 30 170 141 297 694 446 1593 429 246 -5 258 -4 268 14 6 10 25
28 42 39 35 22 71 20 112 -7z m1318 7 c25 -10 27 -14 27 -71 0 -33 -4 -60 -8
-60 -4 0 -25 9 -47 20 -77 39 -175 18 -175 -38 0 -27 28 -48 101 -78 118 -47
159 -97 159 -191 -1 -129 -88 -198 -250 -196 -41 0 -93 7 -115 14 l-40 14 -3
68 c-2 37 0 67 3 67 4 0 21 -10 38 -22 24 -17 49 -24 103 -26 63 -4 75 -1 93
17 12 12 21 34 21 50 0 34 -21 51 -120 99 -78 37 -91 47 -119 92 -55 90 0 216
109 249 41 12 183 8 223 -8z m492 -2 c28 -13 29 -17 26 -69 -1 -30 -4 -56 -6
-58 -2 -2 -21 6 -44 17 -54 28 -134 28 -161 1 -41 -41 -22 -67 90 -118 95 -43
133 -80 150 -143 25 -93 -21 -185 -115 -225 -75 -32 -277 -16 -292 23 -3 7 -2
38 1 67 l7 54 42 -24 c61 -34 158 -34 192 1 14 13 25 30 25 37 0 30 -37 62
-105 93 -128 59 -175 122 -159 213 13 71 56 118 132 143 39 12 182 5 217 -12z
m1088 13 c-6 -4 -13 -32 -15 -62 l-3 -55 -67 2 -68 2 0 -248 0 -249 -72 -4
c-40 -3 -76 -3 -80 -1 -4 2 -5 114 -1 248 l6 245 -76 0 c-85 0 -81 -4 -71 73
l7 47 216 3 c119 1 221 3 226 5 6 1 5 -2 -2 -6z m-2053 -306 l0 -304 -72 -4
c-40 -2 -76 -2 -80 0 -5 2 -8 140 -8 308 l0 304 80 0 80 0 0 -304z m1499 222
c12 -46 49 -181 83 -301 33 -120 59 -219 57 -221 -2 -2 -38 -6 -79 -8 l-75 -3
-20 83 -19 82 -93 0 -92 0 -15 -52 c-8 -29 -18 -65 -22 -80 -6 -27 -8 -28 -79
-28 l-73 0 94 278 c51 152 97 289 103 305 l9 27 100 0 99 0 22 -82z m915 -110
c26 -106 50 -200 53 -208 3 -8 30 77 62 190 l56 205 106 3 105 3 13 -302 c7
-165 11 -302 9 -304 -2 -1 -35 -5 -74 -7 l-72 -4 -7 236 -8 235 -49 -185 c-27
-102 -55 -205 -62 -230 l-13 -45 -64 -6 c-35 -3 -68 -2 -72 1 -5 4 -34 106
-65 228 -31 121 -60 223 -63 226 -12 12 -18 -356 -6 -375 9 -14 9 -21 -1 -31
-6 -6 -12 -20 -12 -30 0 -15 -9 -18 -50 -19 -27 -1 -56 -2 -62 -3 -8 -1 -13
12 -13 34 1 76 27 556 31 568 2 8 33 12 107 12 l103 0 48 -192z m-5344 162 c0
-5 -4 -10 -10 -10 -5 0 -10 5 -10 10 0 6 5 10 10 10 6 0 10 -4 10 -10z m9157
-54 c-4 -9 -11 -16 -17 -16 -17 0 -24 31 -9 41 18 11 34 -5 26 -25z m573 4 c0
-5 -4 -10 -10 -10 -5 0 -10 5 -10 10 0 6 5 10 10 10 6 0 10 -4 10 -10z m-3200
-35 c0 -8 -7 -15 -15 -15 -8 0 -15 7 -15 15 0 8 7 15 15 15 8 0 15 -7 15 -15z
m-5400 -38 c0 -8 -3 -17 -7 -20 -9 -9 -34 13 -27 24 8 14 34 11 34 -4z m240
-37 c0 -5 -2 -10 -4 -10 -3 0 -8 5 -11 10 -3 6 -1 10 4 10 6 0 11 -4 11 -10z
m-175 -10 c3 -5 1 -10 -4 -10 -6 0 -11 5 -11 10 0 6 2 10 4 10 3 0 8 -4 11
-10z m5975 -26 c0 -17 -26 -19 -36 -3 -7 12 15 31 28 23 4 -3 8 -12 8 -20z
m520 -25 c0 -5 -7 -9 -15 -9 -15 0 -20 12 -9 23 8 8 24 -1 24 -14z m-5280 -4
c0 -8 -7 -15 -15 -15 -16 0 -20 12 -8 23 11 12 23 8 23 -8z m3540 -20 c0 -8
-7 -15 -15 -15 -8 0 -15 7 -15 15 0 8 7 15 15 15 8 0 15 -7 15 -15z m-2400
-30 c0 -8 -7 -15 -15 -15 -8 0 -15 7 -15 15 0 8 7 15 15 15 8 0 15 -7 15 -15z
m5534 0 c3 -9 -1 -18 -10 -22 -19 -7 -39 11 -30 26 10 16 33 13 40 -4z m-207
-21 c-9 -9 -28 6 -21 18 4 6 10 6 17 -1 6 -6 8 -13 4 -17z m-867 -24 c0 -21
-24 -28 -35 -10 -8 14 3 30 21 30 8 0 14 -9 14 -20z m-7280 -35 c0 -8 -7 -15
-15 -15 -16 0 -20 12 -8 23 11 12 23 8 23 -8z m6140 5 c0 -5 -2 -10 -4 -10 -3
0 -8 5 -11 10 -3 6 -1 10 4 10 6 0 11 -4 11 -10z m-500 -30 c0 -5 -7 -10 -15
-10 -8 0 -15 5 -15 10 0 6 7 10 15 10 8 0 15 -4 15 -10z m-437 -75 c8 -18 -11
-31 -25 -17 -11 11 -3 32 12 32 4 0 10 -7 13 -15z m-3189 -26 c-8 -14 -34 -11
-34 4 0 8 3 17 7 20 9 9 34 -13 27 -24z m6136 1 c0 -5 -5 -10 -11 -10 -5 0 -7
5 -4 10 3 6 8 10 11 10 2 0 4 -4 4 -10z m-3860 -30 c0 -5 -4 -10 -10 -10 -5 0
-10 5 -10 10 0 6 5 10 10 10 6 0 10 -4 10 -10z m2736 -21 c10 -17 -13 -36 -27
-22 -12 12 -4 33 11 33 5 0 12 -5 16 -11z m-3826 -39 c0 -5 -4 -10 -10 -10 -5
0 -10 5 -10 10 0 6 5 10 10 10 6 0 10 -4 10 -10z m2395 1 c7 -12 -12 -24 -25
-16 -11 7 -4 25 10 25 5 0 11 -4 15 -9z m2997 -6 c0 -5 -5 -11 -11 -13 -6 -2
-11 4 -11 13 0 9 5 15 11 13 6 -2 11 -8 11 -13z m-3506 -94 c-22 -21 -46 0
-26 24 10 12 16 13 27 3 12 -10 12 -13 -1 -27z m-4221 19 c3 -5 1 -10 -4 -10
-6 0 -11 5 -11 10 0 6 2 10 4 10 3 0 8 -4 11 -10z m7510 0 c3 -5 1 -10 -4 -10
-6 0 -11 5 -11 10 0 6 2 10 4 10 3 0 8 -4 11 -10z m-3137 -31 c-2 -6 -8 -10
-13 -10 -5 0 -11 4 -13 10 -2 6 4 11 13 11 9 0 15 -5 13 -11z m3582 -39 c0 -5
-4 -10 -10 -10 -5 0 -10 5 -10 10 0 6 5 10 10 10 6 0 10 -4 10 -10z m-6730
-30 c0 -5 -2 -10 -4 -10 -3 0 -8 5 -11 10 -3 6 -1 10 4 10 6 0 11 -4 11 -10z
m3600 -35 c0 -8 -4 -15 -9 -15 -13 0 -22 16 -14 24 11 11 23 6 23 -9z m1840 0
c13 -16 6 -35 -15 -35 -18 0 -28 17 -21 35 7 19 20 19 36 0z m358 -18 c2 -11
-3 -17 -17 -17 -23 0 -35 15 -26 31 10 15 39 6 43 -14z m-7104 -18 c-3 -5 -10
-7 -15 -3 -5 3 -7 10 -3 15 3 5 10 7 15 3 5 -3 7 -10 3 -15z m3096 1 c0 -5 -4
-10 -10 -10 -5 0 -10 5 -10 10 0 6 5 10 10 10 6 0 10 -4 10 -10z m1250 0 c0
-5 -7 -10 -15 -10 -8 0 -15 5 -15 10 0 6 7 10 15 10 8 0 15 -4 15 -10z m3260
0 c0 -5 -4 -10 -10 -10 -5 0 -10 5 -10 10 0 6 5 10 10 10 6 0 10 -4 10 -10z
m-7030 -20 c0 -5 -2 -10 -4 -10 -3 0 -8 5 -11 10 -3 6 -1 10 4 10 6 0 11 -4
11 -10z m7216 -1 c8 -14 -18 -31 -30 -19 -9 9 0 30 14 30 5 0 12 -5 16 -11z
m-3736 -39 c0 -5 -5 -10 -11 -10 -5 0 -7 5 -4 10 3 6 8 10 11 10 2 0 4 -4 4
-10z m3050 6 c0 -3 -4 -8 -10 -11 -5 -3 -10 -1 -10 4 0 6 5 11 10 11 6 0 10
-2 10 -4z m-7485 -36 c0 -18 -6 -26 -23 -28 -24 -4 -38 18 -28 44 3 9 15 14
28 12 17 -2 23 -10 23 -28z m4778 -210 c-5 -190 -4 -242 7 -255 9 -11 10 -19
3 -26 -7 -7 -9 -40 -6 -88 5 -65 3 -79 -10 -84 -9 -3 -19 -2 -22 3 -4 6 -19
10 -36 10 -22 0 -29 5 -29 20 0 20 0 20 -32 0 -61 -37 -171 -19 -219 36 -57
65 -72 192 -32 269 44 84 106 121 223 131 l71 7 -3 101 -3 100 30 7 c71 16 66
35 58 -231z m3397 105 c0 -74 1 -135 3 -135 2 0 23 9 47 21 82 40 183 21 214
-39 9 -19 15 -81 18 -204 5 -164 3 -178 -12 -178 -10 0 -32 -3 -49 -6 l-31 -6
0 164 c0 152 -2 167 -21 192 -26 32 -73 35 -129 6 l-40 -20 0 -164 0 -163 -41
-7 c-23 -4 -44 -5 -46 -2 -3 3 -6 152 -6 333 l-1 328 29 6 c69 15 65 23 65
-126z m-3605 90 c0 -25 -4 -30 -24 -30 -32 0 -49 28 -31 50 7 9 23 15 34 13
16 -2 21 -10 21 -33z m-1895 5 c0 -5 -4 -10 -10 -10 -5 0 -10 -9 -10 -19 0
-11 -5 -21 -12 -23 -6 -2 -12 -15 -13 -29 l-2 -24 -132 -3 -132 -3 3 -87 3
-87 123 -3 122 -3 -6 -24 c-5 -19 -2 -25 11 -25 9 0 13 -4 10 -10 -4 -6 -60
-10 -136 -10 l-130 0 3 -102 3 -103 133 2 132 3 0 -35 0 -35 -140 -2 c-77 -1
-159 -2 -181 -3 l-42 0 0 300 0 300 164 3 c134 2 165 5 172 18 5 9 16 13 28 9
11 -4 19 -2 19 4 0 6 5 11 10 11 6 0 10 -4 10 -10z m-1220 -4 c0 -3 -4 -8 -10
-11 -5 -3 -10 -1 -10 4 0 6 5 11 10 11 6 0 10 -2 10 -4z m-2125 -46 c-5 -8
-11 -8 -17 -2 -6 6 -7 16 -3 22 5 8 11 8 17 2 6 -6 7 -16 3 -22z m4278 9 c35
-9 37 -12 37 -49 0 -45 -1 -46 -60 -25 -50 18 -129 20 -164 4 -13 -7 -30 -25
-37 -41 -21 -51 -2 -72 128 -135 103 -51 121 -63 140 -98 28 -49 29 -95 4
-159 -16 -44 -24 -51 -72 -72 -67 -29 -196 -33 -259 -8 -38 16 -40 18 -40 61
0 25 3 43 8 41 69 -36 93 -43 155 -43 65 0 70 2 98 33 57 63 26 116 -96 167
-83 35 -131 68 -151 106 -15 30 -18 101 -5 134 5 11 4 25 -1 33 -8 9 -6 12 7
12 10 0 32 9 51 20 61 38 154 45 257 19z m-1863 -91 c0 -57 2 -192 3 -300 l2
-198 -43 -6 c-24 -4 -45 -4 -48 -2 -6 7 -11 597 -5 603 2 3 24 5 48 5 l43 0 0
-102z m468 65 l-3 -38 -127 -3 c-74 -1 -128 -7 -128 -12 -1 -6 -1 -45 -2 -87
l0 -78 122 -3 121 -3 -3 -32 -3 -32 -120 -3 -120 -3 2 -102 2 -102 133 0 133
0 -3 -30 c-2 -16 -5 -31 -5 -31 -1 -1 -82 -4 -179 -7 l-177 -6 -3 300 c-2 166
-1 303 1 305 2 2 85 4 183 4 l179 0 -3 -37z m835 30 c3 -5 2 -23 0 -40 l-5
-33 -129 0 -129 0 0 -90 c0 -89 0 -90 24 -90 36 0 56 10 57 29 0 12 3 11 16
-6 13 -20 24 -23 79 -23 l64 0 0 -35 0 -35 -120 0 -120 0 0 -106 0 -106 132 3
133 4 0 -29 c1 -15 -4 -30 -10 -31 -5 -2 -88 -6 -182 -8 l-173 -5 0 304 0 304
179 0 c99 0 182 -3 184 -7z m3427 -19 c52 -30 75 -68 74 -123 -1 -57 -29 -102
-75 -122 l-32 -13 38 -13 c141 -48 140 -219 0 -284 -33 -15 -65 -19 -181 -19
l-141 0 1 293 c1 181 5 295 11 300 6 4 69 6 141 4 107 -3 137 -7 164 -23z
m-450 6 c0 -5 -7 -10 -15 -10 -8 0 -15 5 -15 10 0 6 7 10 15 10 8 0 15 -4 15
-10z m-2157 -148 c45 3 47 2 47 -40 0 -26 -2 -27 -45 -24 l-45 4 0 -145 c0
-161 5 -174 60 -163 29 5 30 4 30 -28 0 -32 -3 -35 -40 -41 -23 -4 -55 -2 -75
5 -58 19 -65 39 -65 177 0 77 -4 124 -11 129 -8 4 -8 9 0 17 6 6 11 19 11 30
0 15 -6 18 -32 15 -30 -3 -32 -1 -32 32 0 32 3 35 32 38 32 3 32 4 32 56 l0
53 43 9 42 9 3 -68 3 -69 42 4z m1095 127 c-2 -6 -8 -10 -13 -10 -5 0 -11 4
-13 10 -2 6 4 11 13 11 9 0 15 -5 13 -11z m913 -125 l50 7 -3 -38 -3 -37 -47
3 -48 3 0 -145 c0 -159 4 -171 59 -165 17 2 30 0 31 -4 3 -50 -1 -56 -35 -62
-46 -9 -111 9 -130 37 -12 17 -15 54 -15 180 l0 159 -30 -4 c-29 -4 -30 -3
-30 34 0 35 2 38 29 38 29 0 30 2 33 52 3 52 3 53 43 64 l40 11 3 -70 3 -69
50 6z m-5083 93 c4 -20 -25 -34 -40 -19 -15 15 -1 44 19 40 10 -2 19 -11 21
-21z m4887 -67 c-3 -5 -10 -10 -16 -10 -5 0 -9 5 -9 10 0 6 7 10 16 10 8 0 12
-4 9 -10z m-5495 -10 c0 -5 -4 -10 -10 -10 -5 0 -10 5 -10 10 0 6 5 10 10 10
6 0 10 -4 10 -10z m3060 -16 c0 -19 -28 -30 -42 -16 -8 8 -8 15 1 26 14 17 41
10 41 -10z m1867 1 c75 -31 100 -71 114 -183 13 -99 13 -110 -3 -129 -13 -17
-14 -19 -16 -71 -2 -28 -8 -35 -39 -48 -52 -22 -163 -19 -217 5 -98 43 -140
166 -101 297 33 111 158 172 262 129z m484 -16 c40 -28 47 -60 52 -245 l5
-172 -26 -21 c-24 -19 -28 -20 -38 -6 -6 8 -16 15 -23 15 -8 0 -11 48 -11 165
0 165 0 166 -26 192 -22 21 -32 25 -68 21 -23 -3 -55 -13 -70 -23 l-27 -18 3
-164 3 -163 -27 -2 c-74 -5 -67 -27 -72 215 -4 165 -2 217 7 217 7 0 29 3 50
6 33 6 37 4 37 -15 0 -25 -1 -25 40 -4 74 36 142 37 191 2z m1259 19 c0 -7 -3
-30 -6 -51 -6 -36 -9 -38 -35 -32 -22 5 -34 1 -54 -19 -25 -25 -25 -28 -25
-181 0 -154 0 -155 -22 -155 -13 0 -33 -3 -44 -6 -21 -6 -21 -4 -26 213 -3
120 -5 219 -4 220 1 0 23 4 50 8 l48 8 -6 -34 -7 -34 22 28 c12 16 31 33 43
37 32 13 66 12 66 -2z m273 -2 c68 -29 71 -38 77 -245 3 -102 6 -187 5 -188 0
-1 -21 -3 -45 -5 -32 -2 -44 1 -42 10 3 15 -7 15 -38 -3 -14 -8 -50 -14 -80
-15 -101 0 -157 58 -147 154 4 41 11 55 40 82 19 18 54 38 76 44 23 6 41 17
41 24 0 20 30 29 36 11 7 -18 48 -20 62 -2 13 16 -2 53 -27 66 -28 15 -81 14
-131 -4 -23 -8 -44 -15 -46 -15 -2 0 -4 15 -4 34 0 30 4 36 33 45 78 24 144
27 190 7z m477 -15 c42 -30 48 -57 53 -242 l5 -177 -41 -5 c-23 -3 -45 -3 -49
-1 -4 3 -8 77 -8 164 0 121 -3 161 -13 167 -8 4 -17 16 -20 27 -6 15 -15 18
-55 14 -26 -3 -60 -13 -75 -23 l-28 -18 3 -163 3 -162 -44 -6 c-24 -3 -45 -5
-47 -4 -1 2 -3 100 -5 218 l-4 214 25 7 c50 14 70 10 70 -12 0 -16 4 -19 18
-14 108 48 162 52 212 16z m395 15 c37 -11 40 -14 41 -49 1 -20 -1 -37 -4 -37
-2 0 -25 7 -51 17 -82 29 -150 -10 -171 -96 -39 -164 86 -272 216 -186 23 15
24 14 24 -7 -1 -69 -30 -88 -132 -88 -130 0 -208 84 -208 224 0 168 129 269
285 222z m-3965 -79 c0 -53 5 -88 13 -96 10 -11 10 -14 0 -18 -9 -3 -13 -26
-13 -68 0 -53 4 -69 24 -92 19 -22 32 -28 64 -27 22 1 54 10 71 20 l31 18 0
127 c0 92 -3 129 -12 133 -10 5 -10 7 0 12 6 3 12 21 12 40 l0 35 45 -3 45 -3
3 -217 c2 -147 0 -218 -8 -218 -5 0 -27 -3 -47 -6 -34 -6 -38 -4 -38 14 0 20
0 20 -37 1 -46 -23 -132 -25 -174 -3 -54 27 -67 76 -69 259 -2 88 -2 163 -1
168 0 4 21 7 46 7 l45 0 0 -83z m-1900 52 c0 -5 -7 -9 -15 -9 -15 0 -20 12 -9
23 8 8 24 -1 24 -14z m-1030 -89 c0 -5 -4 -10 -10 -10 -5 0 -10 5 -10 10 0 6
5 10 10 10 6 0 10 -4 10 -10z m-1500 -50 c0 -5 -4 -10 -10 -10 -5 0 -10 5 -10
10 0 6 5 10 10 10 6 0 10 -4 10 -10z m8265 -38 c0 -18 -20 -15 -23 4 -3 10 1
15 10 12 7 -3 13 -10 13 -16z m-4853 -27 c0 -5 -5 -11 -11 -13 -6 -2 -11 4
-11 13 0 9 5 15 11 13 6 -2 11 -8 11 -13z m2668 -11 c0 -8 -5 -12 -10 -9 -6 4
-8 11 -5 16 9 14 15 11 15 -7z m27 -50 c-9 -9 -28 6 -21 18 4 6 10 6 17 -1 6
-6 8 -13 4 -17z m-2482 -54 c-3 -5 -10 -10 -16 -10 -5 0 -9 5 -9 10 0 6 7 10
16 10 8 0 12 -4 9 -10z m-2715 -75 c0 -8 -7 -15 -15 -15 -16 0 -20 12 -8 23
11 12 23 8 23 -8z m2755 -45 c3 -6 -1 -13 -10 -16 -19 -8 -30 0 -20 15 8 14
22 14 30 1z m-2795 -10 c0 -5 -4 -10 -10 -10 -5 0 -10 5 -10 10 0 6 5 10 10
10 6 0 10 -4 10 -10z m3290 -10 c0 -5 -4 -10 -10 -10 -5 0 -10 5 -10 10 0 6 5
10 10 10 6 0 10 -4 10 -10z m2580 -4 c0 -11 -19 -15 -25 -6 -3 5 1 10 9 10 9
0 16 -2 16 -4z m-6842 -57 c-2 -6 -8 -10 -13 -10 -5 0 -11 4 -13 10 -2 6 4 11
13 11 9 0 15 -5 13 -11z m4452 -19 c0 -5 -5 -10 -11 -10 -5 0 -7 5 -4 10 3 6
8 10 11 10 2 0 4 -4 4 -10z m-3610 -20 c0 -5 -4 -10 -10 -10 -5 0 -10 5 -10
10 0 6 5 10 10 10 6 0 10 -4 10 -10z m2100 0 c0 -5 -5 -10 -11 -10 -5 0 -7 5
-4 10 3 6 8 10 11 10 2 0 4 -4 4 -10z m2830 -9 c0 -6 -4 -13 -10 -16 -5 -3
-10 1 -10 9 0 9 5 16 10 16 6 0 10 -4 10 -9z m1403 -6 c1 -5 -6 -11 -15 -13
-11 -2 -18 3 -18 13 0 17 30 18 33 0z m-2228 -4 c7 -12 -12 -24 -25 -16 -11 7
-4 25 10 25 5 0 11 -4 15 -9z m-3022 -25 c8 -20 -20 -43 -35 -28 -14 14 -3 42
16 42 7 0 16 -6 19 -14z m-2003 -22 c0 -14 -21 -19 -33 -7 -9 9 13 34 24 27 5
-3 9 -12 9 -20z m140 -10 c11 -12 11 -18 -2 -31 -19 -18 -38 -10 -38 16 0 33
20 40 40 15z m6660 6 c0 -5 -4 -10 -10 -10 -5 0 -10 5 -10 10 0 6 5 10 10 10
6 0 10 -4 10 -10z m2380 6 c0 -3 -4 -8 -10 -11 -5 -3 -10 -1 -10 4 0 6 5 11
10 11 6 0 10 -2 10 -4z m-4193 -22 c3 -8 -2 -23 -11 -32 -15 -15 -17 -15 -32
0 -21 21 -11 48 16 48 11 0 23 -7 27 -16z m1165 1 c0 -5 -5 -11 -11 -13 -6 -2
-11 4 -11 13 0 9 5 15 11 13 6 -2 11 -8 11 -13z m3068 7 c0 -13 -12 -22 -22
-16 -10 6 -1 24 13 24 5 0 9 -4 9 -8z m-3905 -35 c8 -12 15 -27 15 -34 0 -20
-38 -53 -60 -53 -24 0 -60 34 -60 55 0 9 11 27 24 40 27 27 58 24 81 -8z
m-3304 -97 c5 0 9 -4 9 -9 0 -4 -11 -6 -25 -3 -14 2 -25 9 -25 14 0 6 7 7 16
4 9 -3 20 -6 25 -6z m439 0 c0 -5 -4 -10 -10 -10 -5 0 -10 5 -10 10 0 6 5 10
10 10 6 0 10 -4 10 -10z m1642 -5 c0 -5 -5 -11 -11 -13 -6 -2 -11 4 -11 13 0
9 5 15 11 13 6 -2 11 -8 11 -13z m1346 -2 c5 -17 -26 -29 -40 -15 -6 6 -7 15
-3 22 9 14 37 9 43 -7z m-1720 -35 c-6 -18 -28 -21 -28 -4 0 9 7 16 16 16 9 0
14 -5 12 -12z m2127 -39 c0 -7 -8 -15 -17 -17 -18 -3 -25 18 -11 32 10 10 28
1 28 -15z m-5865 1 c0 -5 -4 -10 -10 -10 -5 0 -10 5 -10 10 0 6 5 10 10 10 6
0 10 -4 10 -10z m5080 -5 c0 -8 -4 -15 -9 -15 -13 0 -22 16 -14 24 11 11 23 6
23 -9z m3650 7 c0 -13 -12 -22 -22 -16 -10 6 -1 24 13 24 5 0 9 -4 9 -8z
m-2285 -12 c3 -5 1 -10 -4 -10 -6 0 -11 5 -11 10 0 6 2 10 4 10 3 0 8 -4 11
-10z m-5775 -50 c0 -5 -4 -10 -10 -10 -5 0 -10 5 -10 10 0 6 5 10 10 10 6 0
10 -4 10 -10z m2000 -11 c0 -5 -7 -9 -15 -9 -15 0 -20 12 -9 23 8 8 24 -1 24
-14z m4060 17 c0 -3 -4 -8 -10 -11 -5 -3 -10 -1 -10 4 0 6 5 11 10 11 6 0 10
-2 10 -4z m-4590 -16 c0 -5 -4 -10 -10 -10 -5 0 -10 5 -10 10 0 6 5 10 10 10
6 0 10 -4 10 -10z m4658 -21 c-2 -6 -8 -10 -13 -10 -5 0 -11 4 -13 10 -2 6 4
11 13 11 9 0 15 -5 13 -11z m1632 -3 c0 -11 -19 -15 -25 -6 -3 5 1 10 9 10 9
0 16 -2 16 -4z m-8580 -32 c0 -16 -16 -19 -25 -4 -8 13 4 32 16 25 5 -4 9 -13
9 -21z m5992 11 c0 -5 -5 -11 -11 -13 -6 -2 -11 4 -11 13 0 9 5 15 11 13 6 -2
11 -8 11 -13z m-5644 -41 c-10 -10 -28 6 -28 24 0 15 1 15 17 -1 9 -9 14 -19
11 -23z m5952 -5 c0 -5 -7 -9 -15 -9 -15 0 -20 12 -9 23 8 8 24 -1 24 -14z
m-2119 -12 c-1 -12 -15 -9 -19 4 -3 6 1 10 8 8 6 -3 11 -8 11 -12z m-3241 -32
c0 -8 -7 -15 -15 -15 -8 0 -15 7 -15 15 0 8 7 15 15 15 8 0 15 -7 15 -15z
m-1480 -19 c0 -3 -4 -8 -10 -11 -5 -3 -10 -1 -10 4 0 6 5 11 10 11 6 0 10 -2
10 -4z m4070 -36 c0 -5 -4 -10 -10 -10 -5 0 -10 5 -10 10 0 6 5 10 10 10 6 0
10 -4 10 -10z m-145 -19 c7 -12 -12 -24 -25 -16 -11 7 -4 25 10 25 5 0 11 -4
15 -9z m3715 -71 c0 -5 -4 -10 -10 -10 -5 0 -10 5 -10 10 0 6 5 10 10 10 6 0
10 -4 10 -10z m-5924 -19 c-3 -5 1 -11 9 -15 23 -8 19 -46 -4 -46 -24 0 -37
18 -23 32 6 6 8 17 5 24 -3 8 0 14 7 14 6 0 9 -4 6 -9z m3353 0 c14 -9 9 -41
-7 -41 -15 0 -34 28 -27 40 8 12 16 13 34 1z m3256 -52 c-4 -5 -12 -9 -18 -8
-9 0 -8 2 1 6 6 2 9 10 6 15 -4 7 -2 8 5 4 6 -4 9 -12 6 -17z m-7885 -9 c0 -5
-4 -10 -10 -10 -5 0 -10 5 -10 10 0 6 5 10 10 10 6 0 10 -4 10 -10z m-310 -40
c0 -5 -4 -10 -10 -10 -5 0 -10 5 -10 10 0 6 5 10 10 10 6 0 10 -4 10 -10z
m2240 0 c0 -5 -4 -10 -10 -10 -5 0 -10 5 -10 10 0 6 5 10 10 10 6 0 10 -4 10
-10z m4174 -5 c7 -19 -20 -46 -39 -39 -15 6 -20 35 -8 47 12 12 41 7 47 -8z
m1276 -21 c0 -8 -4 -12 -10 -9 -5 3 -10 10 -10 16 0 5 5 9 10 9 6 0 10 -7 10
-16z m-6160 -25 c0 -5 -7 -9 -15 -9 -15 0 -20 12 -9 23 8 8 24 -1 24 -14z
m1860 17 c0 -3 -4 -8 -10 -11 -5 -3 -10 -1 -10 4 0 6 5 11 10 11 6 0 10 -2 10
-4z m-2368 -51 c0 -5 -5 -11 -11 -13 -6 -2 -11 4 -11 13 0 9 5 15 11 13 6 -2
11 -8 11 -13z m4648 -35 c0 -5 -7 -10 -15 -10 -8 0 -15 5 -15 10 0 6 7 10 15
10 8 0 15 -4 15 -10z m-3675 -20 c3 -5 1 -10 -4 -10 -6 0 -11 5 -11 10 0 6 2
10 4 10 3 0 8 -4 11 -10z m1665 -11 c0 -5 -7 -9 -15 -9 -15 0 -20 12 -9 23 8
8 24 -1 24 -14z m3330 -9 c0 -5 -4 -10 -10 -10 -5 0 -10 5 -10 10 0 6 5 10 10
10 6 0 10 -4 10 -10z m-5380 -15 c0 -8 -7 -15 -15 -15 -16 0 -20 12 -8 23 11
12 23 8 23 -8z m3550 -10 c0 -8 -7 -15 -15 -15 -16 0 -20 12 -8 23 11 12 23 8
23 -8z m-2030 -21 c0 -16 -16 -19 -25 -4 -8 13 4 32 16 25 5 -4 9 -13 9 -21z
m1158 14 c19 -19 15 -66 -7 -78 -11 -5 -24 -10 -30 -10 -18 0 -41 31 -41 55 0
37 52 59 78 33z m-3308 -32 c0 -3 -4 -8 -10 -11 -5 -3 -10 -1 -10 4 0 6 5 11
10 11 6 0 10 -2 10 -4z m2880 -10 c0 -20 -19 -31 -32 -18 -6 6 -7 15 -4 21 10
16 36 13 36 -3z m960 -70 c0 -3 -4 -8 -10 -11 -5 -3 -10 -1 -10 4 0 6 5 11 10
11 6 0 10 -2 10 -4z m560 -6 c0 -5 -7 -10 -16 -10 -8 0 -12 5 -9 10 3 6 10 10
16 10 5 0 9 -4 9 -10z m3860 -30 c0 -5 -4 -10 -10 -10 -5 0 -10 5 -10 10 0 6
5 10 10 10 6 0 10 -4 10 -10z m-7030 -20 c0 -5 -2 -10 -4 -10 -3 0 -8 5 -11
10 -3 6 -1 10 4 10 6 0 11 -4 11 -10z m7260 -10 c0 -5 -7 -10 -15 -10 -8 0
-15 5 -15 10 0 6 7 10 15 10 8 0 15 -4 15 -10z m-8640 -20 c0 -5 -4 -10 -10
-10 -5 0 -10 5 -10 10 0 6 5 10 10 10 6 0 10 -4 10 -10z m3786 -1 c10 -17 -13
-36 -27 -22 -12 12 -4 33 11 33 5 0 12 -5 16 -11z m1444 1 c0 -5 -4 -10 -10
-10 -5 0 -10 5 -10 10 0 6 5 10 10 10 6 0 10 -4 10 -10z m571 -13 c-13 -13
-26 -3 -16 12 3 6 11 8 17 5 6 -4 6 -10 -1 -17z m-4506 -12 c0 -23 -34 -33
-45 -14 -13 20 1 40 24 37 13 -2 21 -10 21 -23z m2225 -55 c0 -5 -4 -10 -10
-10 -5 0 -10 5 -10 10 0 6 5 10 10 10 6 0 10 -4 10 -10z m-1900 -10 c0 -5 -4
-10 -10 -10 -5 0 -10 5 -10 10 0 6 5 10 10 10 6 0 10 -4 10 -10z m2675 -20 c3
-5 1 -10 -4 -10 -6 0 -11 5 -11 10 0 6 2 10 4 10 3 0 8 -4 11 -10z m2332 -46
c-9 -9 -28 6 -21 18 4 6 10 6 17 -1 6 -6 8 -13 4 -17z m-1876 -7 c-1 -12 -15
-9 -19 4 -3 6 1 10 8 8 6 -3 11 -8 11 -12z m-4216 -7 c3 -5 1 -10 -4 -10 -6 0
-11 5 -11 10 0 6 2 10 4 10 3 0 8 -4 11 -10z m5163 -17 c2 -8 -5 -13 -17 -13
-12 0 -21 6 -21 16 0 18 31 15 38 -3z m922 -3 c0 -5 -4 -10 -10 -10 -5 0 -10
5 -10 10 0 6 5 10 10 10 6 0 10 -4 10 -10z m750 -20 c0 -5 -2 -10 -4 -10 -3 0
-8 5 -11 10 -3 6 -1 10 4 10 6 0 11 -4 11 -10z m-2532 -41 c-2 -6 -8 -10 -13
-10 -5 0 -11 4 -13 10 -2 6 4 11 13 11 9 0 15 -5 13 -11z m-1758 -23 c0 -3 -4
-8 -10 -11 -5 -3 -10 -1 -10 4 0 6 5 11 10 11 6 0 10 -2 10 -4z m-3982 -27
c-2 -6 -8 -10 -13 -10 -5 0 -11 4 -13 10 -2 6 4 11 13 11 9 0 15 -5 13 -11z
m5912 -5 c0 -8 -5 -12 -10 -9 -6 4 -8 11 -5 16 9 14 15 11 15 -7z m-89 -87
c-13 -13 -26 -3 -16 12 3 6 11 8 17 5 6 -4 6 -10 -1 -17z m-4011 3 c13 -8 12
-10 -2 -10 -10 0 -21 0 -25 -1 -4 0 -9 4 -11 10 -5 14 18 14 38 1z m1250 -2
c0 -4 -7 -8 -15 -8 -8 0 -15 4 -15 8 0 5 7 9 15 9 8 0 15 -4 15 -9z m230 -103
c0 -8 -4 -15 -9 -15 -13 0 -22 16 -14 24 11 11 23 6 23 -9z m5380 -15 c0 -5
-4 -10 -10 -10 -5 0 -10 5 -10 10 0 6 5 10 10 10 6 0 10 -4 10 -10z m-6018
-32 c-7 -7 -12 -8 -12 -2 0 14 12 26 19 19 2 -3 -1 -11 -7 -17z m5908 2 c0 -5
-4 -10 -10 -10 -5 0 -10 5 -10 10 0 6 5 10 10 10 6 0 10 -4 10 -10z m-1370
-10 c0 -5 -4 -10 -10 -10 -5 0 -10 5 -10 10 0 6 5 10 10 10 6 0 10 -4 10 -10z
m-7082 -33 c2 -12 -3 -17 -17 -17 -15 0 -21 6 -21 21 0 25 33 22 38 -4z m1506
17 c21 -8 21 -43 0 -51 -8 -3 -23 1 -31 10 -13 13 -14 19 -3 31 14 18 13 18
34 10z m601 -14 c3 -5 1 -10 -4 -10 -6 0 -11 5 -11 10 0 6 2 10 4 10 3 0 8 -4
11 -10z m-2075 -60 c0 -5 -4 -10 -10 -10 -5 0 -10 5 -10 10 0 6 5 10 10 10 6
0 10 -4 10 -10z m4361 -83 c-1 -12 -15 -9 -19 4 -3 6 1 10 8 8 6 -3 11 -8 11
-12z m2349 -7 c0 -5 -2 -10 -4 -10 -3 0 -8 5 -11 10 -3 6 -1 10 4 10 6 0 11
-4 11 -10z m-2340 -56 c0 -19 -28 -30 -42 -16 -8 8 -8 15 1 26 14 17 41 10 41
-10z m-2700 -19 c0 -21 -30 -31 -40 -14 -11 17 -3 29 21 29 10 0 19 -7 19 -15z
m1775 -154 c3 -5 1 -12 -5 -16 -5 -3 -10 1 -10 9 0 18 6 21 15 7z m3663 -23
c-6 -18 -28 -21 -28 -4 0 9 7 16 16 16 9 0 14 -5 12 -12z m612 3 c0 -6 -4 -13
-10 -16 -5 -3 -10 1 -10 9 0 9 5 16 10 16 6 0 10 -4 10 -9z m-5485 -31 c3 -5
1 -10 -4 -10 -6 0 -11 5 -11 10 0 6 2 10 4 10 3 0 8 -4 11 -10z m2193 -11 c-2
-6 -8 -10 -13 -10 -5 0 -11 4 -13 10 -2 6 4 11 13 11 9 0 15 -5 13 -11z m4732
-69 c0 -21 -24 -28 -35 -10 -8 14 3 30 21 30 8 0 14 -9 14 -20z m575 -230 c3
-5 -1 -10 -10 -10 -9 0 -13 5 -10 10 3 6 8 10 10 10 2 0 7 -4 10 -10z m-8760
-30 c-5 -8 -11 -8 -17 -2 -6 6 -7 16 -3 22 5 8 11 8 17 2 6 -6 7 -16 3 -22z
m2171 19 c10 -17 -13 -36 -27 -22 -12 12 -4 33 11 33 5 0 12 -5 16 -11z m5114
-9 c0 -5 -4 -10 -10 -10 -5 0 -10 5 -10 10 0 6 5 10 10 10 6 0 10 -4 10 -10z
m-4260 -140 c0 -5 -2 -10 -4 -10 -3 0 -8 5 -11 10 -3 6 -1 10 4 10 6 0 11 -4
11 -10z m5360 -104 c0 -11 -19 -15 -25 -6 -3 5 1 10 9 10 9 0 16 -2 16 -4z
m-2960 -56 c0 -5 -4 -10 -10 -10 -5 0 -10 5 -10 10 0 6 5 10 10 10 6 0 10 -4
10 -10z m-2174 -169 c-10 -16 -36 -13 -43 5 -8 22 18 37 36 20 7 -8 10 -19 7
-25z m3654 9 c0 -5 -7 -10 -16 -10 -8 0 -12 5 -9 10 3 6 10 10 16 10 5 0 9 -4
9 -10z m-3932 -112 c2 -14 -4 -31 -13 -38 -13 -11 -19 -11 -32 3 -15 14 -15
18 1 42 21 31 40 28 44 -7z m1102 -32 c0 -11 -19 -15 -25 -6 -3 5 1 10 9 10 9
0 16 -2 16 -4z m2460 -146 c0 -5 -5 -10 -11 -10 -5 0 -7 5 -4 10 3 6 8 10 11
10 2 0 4 -4 4 -10z m1180 -10 c0 -5 -5 -10 -11 -10 -5 0 -7 5 -4 10 3 6 8 10
11 10 2 0 4 -4 4 -10z m-8115 -295 c0 -23 -34 -33 -45 -14 -13 20 1 40 24 37
13 -2 21 -10 21 -23z m870 -104 c7 -12 -12 -24 -25 -16 -11 7 -4 25 10 25 5 0
11 -4 15 -9z m1365 -1 c0 -5 -4 -10 -10 -10 -5 0 -10 5 -10 10 0 6 5 10 10 10
6 0 10 -4 10 -10z m3835 -110 c-5 -8 -11 -8 -17 -2 -6 6 -7 16 -3 22 5 8 11 8
17 2 6 -6 7 -16 3 -22z"/>
<path d="M2167 5763 c-4 -3 -7 -19 -7 -35 0 -21 6 -31 23 -37 41 -16 77 22 57
60 -10 19 -59 27 -73 12z"/>
<path d="M2374 5539 c-20 -22 -13 -43 19 -63 36 -23 75 36 47 70 -17 20 -44
17 -66 -7z"/>
<path d="M2589 5311 c-21 -16 -22 -22 -11 -45 19 -42 82 -30 82 15 0 18 -25
49 -40 49 -4 0 -18 -8 -31 -19z"/>
<path d="M4467 5710 c-3 -8 -19 -61 -35 -117 l-29 -101 63 -4 63 -3 -6 26
c-21 104 -51 211 -56 199z"/>
<path d="M5915 4623 c-88 -21 -130 -84 -123 -183 5 -70 30 -104 89 -121 31
-10 43 -9 76 7 l38 19 3 143 3 142 -33 -1 c-18 -1 -42 -3 -53 -6z m-70 -73 c3
-5 1 -10 -4 -10 -6 0 -11 5 -11 10 0 6 2 10 4 10 3 0 8 -4 11 -10z"/>
<path d="M7570 4686 l0 -96 55 0 c102 0 149 35 143 107 -4 53 -41 76 -128 81
l-70 4 0 -96z"/>
<path d="M7574 4507 c-3 -8 -4 -54 -2 -103 l3 -89 68 2 c83 2 123 17 142 54
46 87 -19 148 -158 149 -31 0 -49 -5 -53 -13z"/>
<path d="M6303 4621 c-30 -19 -63 -66 -63 -91 0 -6 38 -10 105 -10 l105 0 0
25 c0 33 -48 84 -85 90 -20 4 -41 -1 -62 -14z"/>
<path d="M6240 4435 c0 -30 28 -82 55 -103 52 -41 143 -37 197 8 15 13 17 18
6 14 -27 -9 -71 41 -64 72 l6 24 -100 0 c-83 0 -100 -3 -100 -15z"/>
<path d="M8350 4468 c-19 -6 -29 -13 -22 -15 17 -7 15 -33 -3 -33 -8 0 -15 7
-15 15 0 22 -17 18 -34 -7 -33 -47 -10 -111 43 -123 17 -3 44 1 69 10 l40 17
4 74 c3 73 3 74 -22 73 -14 0 -41 -5 -60 -11z"/>
</g>
</svg>
