<?xml version="1.0" standalone="no"?>
<!DOCTYPE svg PUBLIC "-//W3C//DTD SVG 20010904//EN"
 "http://www.w3.org/TR/2001/REC-SVG-20010904/DTD/svg10.dtd">
<svg version="1.0" xmlns="http://www.w3.org/2000/svg"
 width="546.000000pt" height="546.000000pt" viewBox="0 0 546.000000 546.000000"
 preserveAspectRatio="xMidYMid meet">

<g transform="translate(0.000000,546.000000) scale(0.100000,-0.100000)"
fill="#000000" stroke="none">
<path d="M3016 4408 c-82 -17 -163 -82 -204 -163 -11 -22 -32 -99 -47 -170
-15 -72 -38 -179 -51 -240 -74 -343 -77 -355 -126 -534 -35 -123 -73 -190
-118 -202 -14 -4 -128 -8 -255 -8 -126 -1 -235 -5 -240 -9 -6 -4 -39 -126 -74
-272 -34 -146 -65 -273 -68 -282 -4 -17 11 -18 199 -20 320 -4 376 -2 437 18
82 28 142 90 170 176 11 37 21 74 21 83 0 13 34 15 280 15 217 0 280 -3 281
-12 0 -7 2 -20 4 -28 4 -17 38 -199 65 -345 10 -55 29 -158 44 -230 14 -71 32
-168 41 -215 9 -47 17 -92 19 -100 2 -8 6 -33 10 -55 34 -191 58 -249 130
-319 167 -164 423 -110 555 116 33 56 58 136 91 293 18 83 36 164 41 180 5 17
15 60 23 95 8 36 24 108 36 160 12 52 31 131 41 175 10 44 22 98 27 120 6 22
15 66 22 98 l11 57 324 0 c319 0 324 0 330 21 4 11 5 22 3 24 -1 2 -61 6 -133
10 -71 3 -140 11 -152 17 -26 13 -48 67 -63 153 -5 33 -12 69 -14 80 -2 11
-11 61 -20 110 -35 195 -63 252 -133 276 -45 15 -95 4 -133 -28 -43 -36 -54
-61 -85 -203 -15 -69 -37 -170 -50 -225 -13 -55 -27 -117 -30 -138 l-7 -38
-282 3 -281 3 -7 45 c-4 25 -16 95 -28 155 -11 61 -25 135 -31 165 -16 91 -69
373 -74 400 -3 14 -10 52 -16 85 -5 33 -16 92 -24 130 -8 39 -21 108 -30 155
-40 216 -64 278 -132 341 -21 19 -56 43 -78 54 -46 21 -165 34 -219 23z m-1
-544 c8 -38 22 -109 31 -159 9 -49 24 -133 34 -185 22 -118 100 -528 105 -555
3 -11 7 -40 11 -65 l6 -45 -256 1 c-141 0 -259 3 -261 6 -3 3 6 54 20 114 15
60 28 118 31 129 2 11 11 47 19 80 9 33 31 125 50 205 18 80 42 179 53 220 11
41 32 129 47 195 19 87 32 125 47 138 30 26 46 6 63 -79z m1527 -634 c11 -48
48 -234 58 -293 5 -26 12 -57 15 -67 6 -19 1 -20 -104 -20 -82 0 -111 3 -111
13 0 10 9 49 25 107 2 8 11 47 20 85 29 128 47 200 52 208 11 19 38 0 45 -33z
m-342 -452 c0 -11 -7 -40 -24 -108 -15 -55 -50 -214 -57 -259 -6 -30 -12 -58
-14 -62 -4 -6 -15 -53 -50 -214 -36 -167 -78 -310 -97 -326 -24 -21 -50 -24
-78 -9 -28 15 -36 35 -54 135 -9 50 -18 101 -21 115 -3 14 -21 113 -41 220
-19 107 -37 204 -39 215 -2 11 -13 72 -24 135 -11 63 -24 127 -27 143 l-6 27
266 0 c206 0 266 -3 266 -12z"/>
<path d="M520 3076 c0 -8 4 -17 9 -21 10 -6 8 -23 -15 -124 -9 -36 -18 -75
-20 -86 -4 -21 -31 -135 -40 -170 -3 -11 -10 -48 -17 -83 -9 -53 -9 -65 3 -72
8 -6 66 -10 128 -10 114 0 125 4 103 38 -5 8 -1 47 10 95 10 45 28 125 40 177
11 52 22 102 24 111 2 9 8 34 14 55 6 22 11 54 11 72 l0 32 -125 0 c-102 0
-125 -3 -125 -14z"/>
<path d="M955 3061 c5 -25 -14 -69 -120 -276 -70 -136 -124 -253 -121 -261 4
-11 28 -14 100 -14 l96 0 -6 29 c-4 17 1 41 11 60 15 31 18 32 68 29 l52 -3 1
-43 c3 -74 0 -72 134 -72 116 0 135 5 106 29 -10 8 -15 53 -21 159 -3 81 -12
201 -19 267 l-11 120 -139 3 -138 3 7 -30z m79 -237 c3 -9 6 -31 6 -50 0 -32
-2 -34 -35 -34 -19 0 -35 2 -35 5 0 11 45 95 51 95 4 0 10 -7 13 -16z"/>
<path d="M1470 3077 c-23 -12 -33 -27 -59 -87 -18 -44 -31 -104 -31 -147 0
-43 0 -43 85 -98 47 -31 85 -62 85 -70 0 -32 -130 -45 -183 -18 -16 8 -31 13
-33 11 -2 -2 -10 -30 -18 -62 -25 -96 -24 -96 162 -96 151 0 159 1 194 25 45
30 79 113 81 196 2 66 -7 81 -96 141 -80 54 -75 71 21 79 40 3 76 10 81 15 12
14 31 74 31 100 l0 24 -147 0 c-98 0 -156 -5 -173 -13z"/>
<path d="M4565 2610 c-40 -16 -67 -56 -61 -90 7 -50 42 -80 92 -80 35 0 47 5
68 31 14 17 26 38 26 47 0 28 -38 82 -66 92 -29 12 -32 12 -59 0z m82 -31 c19
-17 18 -99 -2 -99 -22 0 -29 24 -15 50 15 28 -3 50 -41 50 -28 0 -29 -1 -29
-55 0 -32 4 -55 11 -55 6 0 8 9 4 20 -9 28 13 26 40 -4 l23 -24 -25 -7 c-36
-9 -61 3 -78 36 -29 56 10 116 69 104 16 -3 35 -10 43 -16z m-29 -31 c-7 -19
-38 -22 -38 -4 0 10 9 16 21 16 12 0 19 -5 17 -12z"/>
<path d="M851 2393 c-71 -17 -134 -51 -151 -82 -17 -33 -12 -76 13 -97 29 -26
56 -38 142 -63 70 -20 115 -44 115 -61 0 -46 -116 -55 -206 -15 -31 14 -60 22
-65 19 -5 -3 -9 -27 -9 -53 0 -47 1 -48 39 -59 21 -7 79 -12 128 -12 137 0
224 35 257 104 34 73 -21 132 -149 161 -52 12 -94 27 -110 39 -18 14 -19 16
-4 31 21 21 93 22 144 1 59 -25 65 -22 65 32 0 48 -1 49 -39 60 -49 15 -90 14
-170 -5z"/>
<path d="M1312 2390 c-109 -29 -152 -65 -152 -129 0 -42 45 -73 155 -106 102
-31 125 -43 125 -65 0 -29 -23 -40 -82 -40 -40 0 -78 8 -119 25 -33 14 -64 23
-69 20 -6 -4 -10 -28 -10 -54 l0 -49 44 -11 c25 -6 84 -11 132 -11 102 0 172
21 221 66 28 27 33 38 33 77 0 40 -4 49 -32 70 -26 20 -87 46 -118 52 -37 7
-121 38 -126 47 -22 34 95 51 163 23 19 -8 39 -15 44 -15 5 0 9 22 9 49 l0 49
-44 11 c-60 15 -88 13 -174 -9z"/>
<path d="M2615 2390 c-2 -3 -5 -97 -6 -210 l-4 -205 70 0 70 0 5 115 5 115 40
-80 41 -80 54 -3 55 -2 40 82 40 82 3 -118 3 -117 77 3 77 3 3 208 3 207 -104
0 -104 0 -39 -85 c-21 -46 -41 -84 -44 -85 -3 0 -24 38 -47 84 l-42 85 -97 3
c-53 2 -97 1 -99 -2z"/>
<path d="M460 2388 c0 -2 -1 -94 -3 -206 -2 -233 -11 -215 103 -210 l65 3 3
208 2 207 -85 0 c-47 0 -85 -1 -85 -2z"/>
<path d="M1771 2366 c10 -21 6 -34 -28 -98 -22 -40 -57 -104 -78 -143 -20 -38
-46 -85 -57 -103 -27 -45 -16 -54 68 -50 l69 3 16 44 16 44 78 0 79 -1 23 -46
23 -46 80 0 c61 0 80 3 80 14 0 13 -82 175 -167 331 l-38 70 -88 3 -87 3 11
-25z m107 -179 c17 -46 16 -47 -23 -47 -19 0 -35 2 -35 5 0 10 34 75 40 75 3
0 11 -15 18 -33z"/>
<path d="M2122 2353 l3 -38 74 3 74 2 -5 -170 c-5 -197 -12 -183 101 -178 l64
3 -2 172 -2 172 78 -2 78 -2 3 38 3 37 -236 0 -236 0 3 -37z"/>
<path d="M505 1864 c-19 -20 -25 -38 -25 -70 0 -38 4 -46 45 -80 47 -38 58
-71 31 -93 -16 -13 -52 0 -69 23 -4 6 -6 -7 -5 -29 3 -38 5 -40 40 -43 56 -5
88 31 88 96 0 53 -8 68 -57 101 -23 15 -33 30 -33 48 0 23 3 25 35 21 33 -4
35 -2 35 24 0 25 -4 28 -30 28 -21 0 -39 -9 -55 -26z"/>
<path d="M977 1883 c-4 -3 -7 -23 -7 -44 0 -28 -5 -38 -19 -42 -35 -9 -61 -66
-61 -133 0 -78 17 -97 81 -88 l44 6 -3 154 c-2 117 -6 154 -16 154 -7 0 -16
-3 -19 -7z m-7 -192 c0 -69 -13 -98 -31 -70 -12 19 -11 96 1 120 20 36 30 19
30 -50z"/>
<path d="M1500 1737 c0 -84 2 -156 4 -158 2 -2 30 -2 61 -1 51 4 58 7 76 35
25 41 24 57 -4 99 -20 28 -21 36 -10 46 17 16 17 83 1 104 -8 9 -37 19 -70 23
l-58 6 0 -154z m98 75 c4 -28 -14 -52 -39 -52 -16 0 -19 8 -19 41 0 38 1 40
28 37 19 -2 28 -9 30 -26z m-12 -100 c21 -14 26 -52 10 -77 -23 -36 -50 -26
-54 19 -5 59 11 80 44 58z"/>
<path d="M2219 1883 c0 -4 0 -73 1 -153 1 -138 6 -159 33 -160 4 0 7 43 7 95
0 89 8 112 27 83 4 -7 10 -49 13 -93 4 -66 8 -80 23 -83 15 -3 17 5 17 70 0
117 -22 168 -64 152 -12 -4 -16 5 -18 43 -2 36 -7 49 -20 51 -10 2 -18 0 -19
-5z"/>
<path d="M2472 1856 c-64 -74 -70 -194 -12 -256 34 -36 69 -38 98 -7 28 29 21
36 -27 30 -35 -5 -39 -3 -51 26 -18 45 -9 154 15 181 10 11 25 18 32 15 7 -3
20 -8 29 -11 12 -5 15 -1 12 22 -2 24 -8 29 -34 32 -25 2 -37 -4 -62 -32z"/>
<path d="M2595 1880 c-8 -12 0 -300 8 -301 28 -6 30 -1 28 83 -1 56 2 89 9 93
22 14 32 -14 33 -96 2 -75 4 -84 21 -84 17 0 19 8 17 95 -3 106 -16 136 -58
125 -22 -5 -23 -2 -23 43 0 37 -4 49 -15 49 -9 0 -18 -3 -20 -7z"/>
<path d="M650 1826 c0 -19 -6 -36 -12 -39 -10 -3 -10 -9 0 -26 6 -11 12 -47
12 -80 0 -80 13 -111 45 -111 18 0 25 5 25 19 0 10 -7 22 -15 25 -13 5 -15 20
-13 73 2 48 7 67 16 66 6 -2 12 6 12 17 0 11 -7 20 -15 20 -10 0 -15 11 -15
35 0 28 -4 35 -20 35 -16 0 -20 -7 -20 -34z"/>
<path d="M1350 1826 c0 -22 -6 -36 -16 -40 -16 -6 -16 -8 0 -24 12 -14 16 -38
16 -94 0 -60 4 -78 18 -91 16 -15 20 -15 38 -2 18 14 18 16 2 29 -14 10 -18
28 -18 84 0 57 3 71 18 77 16 6 16 7 0 19 -11 8 -18 26 -18 45 0 24 -4 31 -20
31 -16 0 -20 -7 -20 -34z"/>
<path d="M3050 1825 c0 -19 -4 -35 -10 -35 -5 0 -10 -7 -10 -15 0 -8 5 -15 10
-15 6 0 10 -30 10 -69 0 -90 12 -121 45 -121 18 0 25 5 25 19 0 10 -7 21 -15
25 -11 4 -15 22 -15 71 0 51 3 65 15 65 8 0 15 9 15 20 0 11 -7 20 -15 20 -10
0 -15 11 -15 35 0 28 -4 35 -20 35 -16 0 -20 -7 -20 -35z"/>
<path d="M1071 1778 c-38 -40 -40 -151 -4 -190 30 -33 104 -11 90 27 -6 14
-10 15 -22 5 -20 -16 -45 -5 -45 20 0 13 12 25 36 35 35 14 36 17 31 55 -9 70
-47 91 -86 48z m49 -42 c0 -13 -7 -27 -16 -30 -23 -9 -26 -3 -18 28 8 33 34
35 34 2z"/>
<path d="M1236 1791 c-3 -4 -16 -6 -29 -4 l-24 5 1 -106 c1 -103 2 -106 24
-106 21 0 22 4 22 79 0 70 10 104 26 88 3 -2 6 -42 8 -88 2 -56 7 -84 14 -83
7 1 16 2 22 3 12 1 1 191 -13 209 -11 14 -43 16 -51 3z"/>
<path d="M1737 1783 c-11 -11 -17 -13 -17 -5 0 7 -9 12 -20 12 -20 0 -21 -5
-18 -107 3 -93 5 -108 21 -111 15 -3 17 5 17 62 0 74 13 116 35 116 9 0 15 9
15 25 0 29 -9 32 -33 8z"/>
<path d="M1800 1777 c0 -18 5 -23 27 -22 39 0 39 -26 1 -50 -43 -27 -57 -67
-37 -103 13 -24 21 -27 65 -27 l51 0 -2 89 c-2 84 -4 91 -29 113 -36 31 -76
31 -76 0z m66 -127 c-4 -37 -10 -44 -31 -37 -29 12 -11 67 22 67 8 0 11 -11 9
-30z"/>
<path d="M1992 1791 c-7 -4 -24 -6 -38 -3 l-25 4 3 -108 c3 -101 4 -109 23
-109 18 0 20 6 16 73 -3 69 7 102 30 102 5 0 9 -41 9 -91 0 -87 1 -90 21 -87
21 3 22 8 20 97 -3 119 -17 149 -59 122z"/>
<path d="M2128 1780 c-50 -39 -62 -147 -21 -192 28 -31 93 -18 93 18 0 8 -11
12 -27 11 -37 -3 -59 41 -47 92 7 29 14 37 37 39 22 3 28 8 25 25 -4 29 -29
32 -60 7z"/>
<path d="M2750 1776 c0 -23 3 -25 29 -20 44 9 48 -20 5 -46 -34 -22 -51 -57
-45 -95 5 -36 21 -45 74 -42 l50 4 -2 84 c-2 102 -19 132 -74 137 -34 3 -37 1
-37 -22z m68 -128 c-3 -36 -30 -46 -36 -15 -5 26 5 47 23 47 12 0 15 -8 13
-32z"/>
<path d="M2946 1791 c-3 -4 -17 -6 -31 -3 l-26 5 3 -148 c3 -132 5 -148 21
-151 14 -2 17 5 17 36 0 32 4 39 21 42 53 8 86 119 56 191 -15 36 -47 51 -61
28z m28 -57 c16 -42 -5 -132 -29 -123 -10 4 -17 102 -10 127 6 17 32 15 39 -4z"/>
<path d="M3178 1790 c-27 -16 -51 -93 -43 -137 13 -72 71 -106 109 -64 23 25
13 45 -14 29 -14 -9 -22 -9 -34 1 -26 22 -19 37 25 54 41 16 41 17 34 54 -7
39 -30 73 -49 73 -6 0 -19 -5 -28 -10z m39 -46 c4 -11 -1 -22 -12 -30 -25 -18
-36 -18 -30 1 3 8 7 22 10 30 6 20 24 19 32 -1z"/>
<path d="M3337 1783 c-11 -11 -17 -13 -17 -5 0 7 -9 12 -20 12 -19 0 -20 -7
-20 -103 0 -57 3 -106 6 -109 3 -3 13 -4 22 -1 14 3 17 12 14 39 -7 60 7 126
29 131 12 3 19 14 19 29 0 28 -9 30 -33 7z"/>
<path d="M741 1700 c2 -110 11 -125 73 -125 l46 0 0 108 c0 100 -1 107 -20
107 -18 0 -20 -7 -20 -79 0 -55 -4 -82 -14 -90 -20 -17 -26 6 -26 95 0 68 -2
74 -21 74 -19 0 -20 -5 -18 -90z"/>
</g>
</svg>
